<svg width="59" height="39" viewBox="0 0 59 39" fill="none" xmlns="http://www.w3.org/2000/svg">
<path d="M6.83734 16.4388C6.83734 16.4388 12.0238 8.74061 22.3794 7.9442V5.1513C10.9092 6.07802 0.976562 15.8511 0.976562 15.8511C0.976562 15.8511 6.60227 32.2118 22.3794 33.7098V30.7411C10.8014 29.2758 6.83734 16.4388 6.83734 16.4388ZM22.3794 24.8372V27.5559C13.629 25.9865 11.2001 16.8357 11.2001 16.8357C11.2001 16.8357 15.4015 12.1535 22.3794 11.3942V14.3774C22.3741 14.3774 22.3704 14.3758 22.366 14.3758C18.7036 13.9337 15.8426 17.3755 15.8426 17.3755C15.8426 17.3755 17.4462 23.1697 22.3794 24.8372ZM22.3794 -9.53674e-07V5.1513C22.7161 5.12533 23.0528 5.10331 23.3913 5.09172C36.4316 4.64957 44.9283 15.8511 44.9283 15.8511C44.9283 15.8511 35.1696 27.7887 25.0028 27.7887C24.071 27.7887 23.1987 27.7018 22.3794 27.5557V30.7411C23.08 30.8306 23.8064 30.8832 24.5644 30.8832C34.0253 30.8832 40.8672 26.0224 47.4922 20.2695C48.5906 21.1545 53.0875 23.3075 54.0119 24.2499C47.7128 29.5554 33.0322 33.8322 24.7094 33.8322C23.9071 33.8322 23.1367 33.7833 22.3794 33.7098V38.1859H58.3396V-9.53674e-07H22.3794ZM22.3794 11.3942V7.94443C22.7126 7.92101 23.0484 7.90293 23.3913 7.89203C32.7686 7.59573 38.9207 15.9988 38.9207 15.9988C38.9207 15.9988 32.2759 25.2828 25.1512 25.2828C24.1258 25.2828 23.2065 25.1171 22.3791 24.8372V14.3774C26.0297 14.8212 26.7645 16.4435 28.9592 20.1241L33.8405 15.9835C33.8405 15.9835 30.2772 11.2822 24.2706 11.2822C23.6177 11.2819 22.9929 11.3281 22.3794 11.3942Z" fill="#77B900"/>
</svg>
